<svg aria-hidden="true" style="position: absolute; width: 0; height: 0; overflow: hidden;" version="1.1" xmlns="http://www.w3.org/2000/svg" xmlns:xlink="http://www.w3.org/1999/xlink">
<defs>
<symbol id="icon-logo" viewBox="0 0 24 32">
<path d="M1.484 4.78l0.208-0.241 1.377 0.486 0.121-0.14 0.411 0.355-0.2 0.231-0.187-0.162-0.744 0.862 0.187 0.162-0.199 0.231-0.411-0.355 0.12-0.139-0.682-1.29zM1.922 4.944l0.46 0.876 0.473-0.548-0.933-0.328z"></path>
<path d="M4.491 2.105l0.964 1.346-0.257 0.184-0.604-0.843 0.101 1.202-0.223 0.16-0.964-1.346 0.257-0.183 0.623 0.87-0.114-1.235 0.216-0.155z"></path>
<path d="M6.204 1.155l0.294-0.121 0.217 0.526 0.198-0.698 0.35-0.145-0.253 0.903 0.937 0.606-0.346 0.142-0.753-0.485 0.28 0.679-0.294 0.121-0.631-1.53z"></path>
<path d="M9.012 0.21l0.888-0.166 0.057 0.303-0.581 0.109 0.055 0.294 0.581-0.109 0.055 0.298-0.581 0.109 0.080 0.428 0.581-0.109 0.057 0.304-0.888 0.166-0.304-1.627z"></path>
<path d="M13.824 0.001l1.173 0.209-0.29 1.63-0.314-0.056 0.238-1.34-0.545-0.097-0.239 1.339-0.315-0.056 0.291-1.63z"></path>
<path d="M17.628 1.054c0.213 0.096 0.362 0.256 0.446 0.479 0.085 0.224 0.077 0.447-0.022 0.669-0.099 0.22-0.259 0.373-0.479 0.457s-0.438 0.079-0.654-0.018c-0.227-0.102-0.38-0.265-0.459-0.489s-0.071-0.444 0.026-0.659c0.064-0.144 0.159-0.262 0.284-0.351s0.263-0.143 0.416-0.158c0.155-0.016 0.303 0.007 0.444 0.071zM17.499 1.334c-0.14-0.063-0.279-0.067-0.418-0.012s-0.242 0.157-0.309 0.307c-0.075 0.167-0.074 0.326 0.002 0.477 0.059 0.118 0.149 0.204 0.269 0.258 0.136 0.061 0.274 0.064 0.414 0.008s0.243-0.156 0.308-0.3c0.064-0.144 0.071-0.287 0.018-0.429s-0.147-0.246-0.285-0.308z"></path>
<path d="M19.824 4.421l0.393-1.239-1.119 0.667-0.262-0.207 1.526-0.905 0.251 0.198-0.524 1.695-0.265-0.208z"></path>
<path d="M22.337 4.581l0.572 0.699-0.238 0.196-0.375-0.457-0.231 0.19 0.375 0.457-0.234 0.192-0.375-0.457-0.337 0.276 0.375 0.457-0.239 0.196-0.573-0.699 1.281-1.049z"></path>
<path d="M13.984 19.794c0.205-0.405 0.378-0.83 0.515-1.27 0.182-0.583 0.3-1.194 0.347-1.825 0.002-0.027 0.004-0.054 0.005-0.081 0.039-0.279 0.279-0.493 0.568-0.493 0.317 0 0.574 0.257 0.574 0.574-0.001 0.027-0.003 0.054-0.005 0.081-0.028 0.383-0.080 0.76-0.153 1.129-0.12 0.608-0.3 1.195-0.532 1.755 1.054-0.217 2.022-0.672 2.846-1.305 1.194-0.917 2.085-2.21 2.495-3.7-1.613-0.64-2.858-2.009-3.328-3.699-0.005-0.016-0.009-0.033-0.013-0.049-0.010-0.043-0.015-0.087-0.015-0.132 0-0.328 0.266-0.594 0.594-0.594 0.257 0 0.476 0.164 0.559 0.392 0.008 0.032 0.017 0.063 0.025 0.095 0.352 1.254 1.237 2.286 2.394 2.838 0.024-0.236 0.036-0.475 0.036-0.716 0-1.855-0.722-3.544-1.9-4.799-0.021-0.023-0.043-0.045-0.064-0.068-0.080-0.098-0.128-0.224-0.128-0.36 0-0.317 0.257-0.574 0.574-0.574 0.138 0 0.263 0.048 0.362 0.129 0.034 0.035 0.067 0.070 0.101 0.106 1.362 1.458 2.196 3.415 2.196 5.566 0 0.365-0.024 0.723-0.070 1.075-0.050 0.375-0.125 0.743-0.224 1.1-0.031 0.113-0.065 0.225-0.101 0.336 0.061-0.106 0.12-0.214 0.177-0.323 0.179-0.343 0.337-0.698 0.471-1.065 0.351-0.959 0.542-1.994 0.542-3.074 0-0.485-0.038-0.96-0.113-1.424-0.004-0.026-0.008-0.053-0.013-0.079-0.002-0.018-0.002-0.036-0.002-0.054 0-0.317 0.257-0.574 0.574-0.574 0.257 0 0.476 0.17 0.548 0.404 0.009 0.051 0.017 0.103 0.026 0.154 0.080 0.513 0.122 1.038 0.122 1.573 0 1.060-0.164 2.082-0.468 3.043-0.125 0.396-0.274 0.782-0.446 1.155-0.836 1.824-2.2 3.357-3.895 4.402-0.848 0.523-1.779 0.923-2.769 1.178-0.007 0.002-0.015 0.004-0.022 0.006-0.842 0.22-1.473 0.965-1.523 1.863 0.892-0.832 2.064-1.367 3.358-1.449 0.115-0.007 0.23-0.011 0.346-0.011 0.346 0 0.683 0.032 1.011 0.094-0.029 0.668-0.267 1.281-0.651 1.777-0.573 0.74-1.471 1.217-2.479 1.217-0.393 0-0.768-0.072-1.115-0.204-0.419-0.16-0.795-0.407-1.106-0.72-0.245-0.247-0.45-0.534-0.602-0.85-0.198-0.411-0.31-0.872-0.31-1.358 0-0.018 0-0.036 0.001-0.054 0-0.003 0-0.006 0-0.009 0.001-0.005 0.001-0.011 0.001-0.016 0.251-0.346 0.475-0.713 0.67-1.096 0.002-0.004 0.004-0.009 0.007-0.013z"></path>
<path d="M10.001 19.794c-0.205-0.405-0.378-0.83-0.515-1.27-0.182-0.583-0.3-1.194-0.347-1.825-0.002-0.027-0.004-0.054-0.005-0.081-0.039-0.279-0.279-0.493-0.568-0.493-0.317 0-0.574 0.257-0.574 0.574 0.001 0.027 0.003 0.054 0.005 0.081 0.029 0.383 0.080 0.76 0.153 1.129 0.12 0.608 0.3 1.195 0.532 1.755-1.054-0.217-2.022-0.672-2.846-1.305-1.194-0.917-2.085-2.21-2.495-3.7 1.613-0.64 2.858-2.009 3.328-3.699 0.005-0.016 0.009-0.033 0.013-0.049 0.010-0.043 0.015-0.087 0.015-0.132 0-0.328-0.266-0.594-0.594-0.594-0.257 0-0.476 0.164-0.559 0.392-0.008 0.032-0.017 0.063-0.025 0.095-0.352 1.254-1.237 2.286-2.394 2.838-0.024-0.236-0.036-0.475-0.036-0.716 0-1.855 0.722-3.544 1.9-4.799 0.021-0.023 0.043-0.045 0.064-0.068 0.080-0.098 0.128-0.224 0.128-0.36 0-0.317-0.257-0.574-0.574-0.574-0.138 0-0.263 0.048-0.362 0.129-0.034 0.035-0.067 0.070-0.101 0.106-1.362 1.458-2.196 3.415-2.196 5.566 0 0.365 0.024 0.723 0.070 1.075 0.050 0.375 0.125 0.743 0.224 1.1 0.031 0.113 0.065 0.225 0.101 0.336-0.061-0.106-0.12-0.214-0.177-0.323-0.179-0.343-0.337-0.698-0.471-1.065-0.351-0.959-0.542-1.994-0.542-3.074 0-0.485 0.038-0.96 0.113-1.424 0.004-0.026 0.008-0.053 0.013-0.079 0.002-0.018 0.002-0.036 0.002-0.054 0-0.317-0.257-0.574-0.574-0.574-0.257 0-0.476 0.17-0.548 0.404-0.009 0.051-0.017 0.103-0.026 0.154-0.080 0.513-0.122 1.038-0.122 1.573 0 1.060 0.164 2.082 0.468 3.043 0.125 0.396 0.274 0.782 0.446 1.155 0.836 1.824 2.2 3.357 3.895 4.402 0.848 0.523 1.779 0.923 2.769 1.178 0.007 0.002 0.015 0.004 0.022 0.006 0.842 0.22 1.473 0.965 1.523 1.863-0.892-0.832-2.064-1.367-3.358-1.449-0.115-0.007-0.23-0.011-0.346-0.011-0.346 0-0.683 0.032-1.011 0.094 0.029 0.668 0.267 1.281 0.651 1.777 0.573 0.74 1.471 1.217 2.479 1.217 0.393 0 0.768-0.072 1.115-0.204 0.419-0.16 0.795-0.407 1.106-0.72 0.245-0.247 0.45-0.534 0.602-0.85 0.198-0.411 0.31-0.872 0.31-1.358 0-0.018 0-0.036-0.001-0.054 0-0.003 0-0.006 0-0.009-0.001-0.005-0.001-0.011-0.001-0.016-0.251-0.346-0.475-0.713-0.67-1.096-0.002-0.004-0.004-0.009-0.007-0.013z"></path>
<path d="M11.914 30.722h0.156c0.642 0 1.163-0.521 1.163-1.163 0-0.078-0.008-0.154-0.023-0.227-0.008-0.044-0.020-0.087-0.033-0.129-0.078-0.322-0.115-0.659-0.107-1.006 0.005-0.23 0.031-0.455 0.075-0.672 0.186-0.934 0.707-1.745 1.429-2.307 0.010-0.008 0.020-0.016 0.030-0.023l0.111-0.081c0.080-0.053 0.178-0.073 0.281-0.073 0.315 0 0.572 0.256 0.572 0.572 0 0.178-0.082 0.338-0.21 0.443-0.018 0.012-0.035 0.025-0.052 0.038-0.667 0.498-1.099 1.294-1.099 2.189 0 0.045 0.001 0.090 0.003 0.135 0.008 0.177 0.034 0.35 0.075 0.517 0.007 0.028 0.014 0.056 0.022 0.084 0.042 0.174 0.064 0.356 0.064 0.542 0 0.462-0.137 0.893-0.371 1.254-0.411 0.63-1.122 1.047-1.929 1.047-0.026 0-0.052-0-0.078-0.001-0.026 0.001-0.052 0.001-0.078 0.001-0.808 0-1.519-0.417-1.929-1.047-0.235-0.361-0.371-0.791-0.371-1.254 0-0.187 0.022-0.368 0.064-0.542 0.007-0.028 0.015-0.056 0.022-0.084 0.041-0.167 0.067-0.339 0.075-0.517 0.002-0.045 0.003-0.090 0.003-0.135 0-0.896-0.432-1.691-1.099-2.189-0.017-0.013-0.034-0.025-0.052-0.038-0.128-0.105-0.21-0.264-0.21-0.443 0-0.316 0.256-0.572 0.572-0.572 0.102 0 0.2 0.020 0.281 0.073l0.111 0.081c0.010 0.008 0.020 0.016 0.030 0.023 0.722 0.562 1.243 1.373 1.429 2.307 0.044 0.218 0.069 0.443 0.075 0.672 0.008 0.347-0.029 0.684-0.107 1.006-0.014 0.042-0.025 0.085-0.033 0.129-0.015 0.074-0.023 0.15-0.023 0.227 0 0.642 0.521 1.163 1.163 1.163z"></path>
<path d="M5.788 5.829l0.064 0.085 0.028-0.021c0.159-0.12 0.287-0.115 0.386 0.016 0.028 0.037 0.046 0.073 0.053 0.109s0.005 0.070-0.006 0.106c-0.011 0.035-0.028 0.065-0.050 0.090s-0.059 0.057-0.111 0.097l0.135 0.179-0.126 0.096-0.136-0.179c-0.055 0.042-0.105 0.071-0.149 0.087s-0.089 0.017-0.135 0.003c-0.046-0.014-0.087-0.044-0.122-0.091-0.034-0.044-0.053-0.088-0.057-0.132s0.004-0.086 0.026-0.125c0.023-0.040 0.068-0.086 0.137-0.138l-0.065-0.085 0.127-0.096zM5.814 6.126l-0.029 0.022c-0.044 0.033-0.068 0.063-0.072 0.088s0.005 0.051 0.025 0.079c0.025 0.032 0.050 0.047 0.077 0.046s0.058-0.015 0.093-0.041l0.034-0.026-0.128-0.168zM5.94 6.030l0.128 0.168 0.041-0.031c0.042-0.032 0.064-0.061 0.066-0.088s-0.007-0.052-0.026-0.078c-0.020-0.026-0.043-0.041-0.068-0.044s-0.060 0.011-0.104 0.044l-0.037 0.028z"></path>
<path d="M6.538 5.315l0.389-0.23 0.079 0.133-0.254 0.15 0.076 0.129 0.254-0.15 0.077 0.13-0.254 0.15 0.11 0.188 0.254-0.15 0.079 0.133-0.389 0.23-0.421-0.713z"></path>
<path d="M7.449 4.811l0.152-0.070c0.082-0.038 0.145-0.057 0.188-0.058s0.083 0.010 0.119 0.034c0.037 0.024 0.066 0.060 0.088 0.107 0.024 0.053 0.030 0.102 0.019 0.15s-0.037 0.089-0.078 0.124c-0.024 0.020-0.072 0.048-0.145 0.081l0.146 0.319-0.143 0.066-0.346-0.752zM7.728 5.039l0.045-0.021c0.036-0.016 0.059-0.030 0.071-0.042s0.019-0.025 0.021-0.040c0.003-0.016 0-0.032-0.007-0.049-0.013-0.029-0.034-0.045-0.063-0.048-0.021-0.002-0.054 0.007-0.098 0.027l-0.040 0.019 0.071 0.154z"></path>
<path d="M8.543 4.35l0.147-0.046 0.356 0.493 0.011-0.609 0.145-0.046 0.382 0.747-0.145 0.046-0.242-0.472-0.011 0.552-0.133 0.042-0.323-0.446 0.071 0.526-0.146 0.046-0.113-0.832z"></path>
<path d="M10.171 3.927l0.158-0.027 0.452 0.763-0.161 0.027-0.092-0.157-0.333 0.056-0.038 0.179-0.162 0.027 0.176-0.869zM10.288 4.13l-0.061 0.299 0.217-0.037-0.156-0.262z"></path>
<path d="M13.431 3.864l0.165 0.027c0.089 0.015 0.152 0.033 0.189 0.057s0.064 0.054 0.080 0.095c0.017 0.040 0.021 0.086 0.013 0.138-0.009 0.057-0.032 0.102-0.068 0.135s-0.080 0.053-0.134 0.059c-0.031 0.004-0.086-0.001-0.166-0.014l-0.056 0.346-0.156-0.025 0.134-0.817zM13.534 4.209l0.050 0.008c0.039 0.006 0.066 0.008 0.082 0.005s0.030-0.010 0.040-0.021c0.011-0.012 0.018-0.026 0.021-0.045 0.005-0.031-0.003-0.056-0.025-0.075-0.016-0.014-0.048-0.024-0.096-0.032l-0.044-0.007-0.027 0.167z"></path>
<path d="M14.752 4.14l0.154 0.044 0.080 0.883-0.157-0.045-0.016-0.182-0.325-0.092-0.111 0.146-0.158-0.045 0.533-0.709zM14.77 4.373l-0.184 0.243 0.212 0.060-0.028-0.303z"></path>
<path d="M15.76 4.47l0.147 0.062-0.122 0.287 0.255 0.108 0.122-0.287 0.147 0.062-0.323 0.762-0.146-0.062 0.142-0.334-0.255-0.108-0.142 0.334-0.147-0.062 0.323-0.762z"></path>
<path d="M16.969 5.573l-0.046-0.026c-0.066-0.037-0.113-0.069-0.141-0.093s-0.049-0.056-0.065-0.095c-0.016-0.039-0.021-0.077-0.015-0.116s0.024-0.084 0.054-0.137l0.081-0.143 0.139 0.079-0.079 0.141c-0.028 0.049-0.038 0.088-0.031 0.117s0.039 0.060 0.096 0.093l0.083 0.047 0.154-0.272 0.138 0.078-0.407 0.721-0.138-0.078 0.178-0.315z"></path>
<path d="M18.212 5.816c0.094 0.070 0.149 0.164 0.165 0.283s-0.011 0.226-0.084 0.324c-0.073 0.097-0.167 0.154-0.284 0.171s-0.222-0.010-0.317-0.081c-0.099-0.074-0.156-0.171-0.171-0.289s0.014-0.224 0.085-0.319c0.047-0.063 0.106-0.11 0.177-0.14s0.144-0.041 0.221-0.032c0.077 0.009 0.147 0.037 0.208 0.083zM18.118 5.938c-0.061-0.046-0.129-0.063-0.202-0.052s-0.135 0.050-0.184 0.116c-0.055 0.073-0.072 0.151-0.051 0.233 0.016 0.064 0.050 0.116 0.103 0.155 0.060 0.045 0.127 0.061 0.201 0.049s0.135-0.049 0.183-0.113c0.047-0.063 0.066-0.132 0.056-0.207s-0.044-0.136-0.105-0.181z"></path>
</symbol>
<symbol id="icon-facebook" viewBox="0 0 32 32">
<path d="M13.847 16.861h-2.192v-3.504h2.192v-2.968c0-1.672 1.36-3.032 3.032-3.032h3.608v3.504h-3.136v2.496h3.136v3.504h-3.136v7.768h-3.504v-7.768z"></path>
<path d="M15.999-0.011c8.832 0 16 7.168 16 16s-7.168 16-16 16c-8.832 0-16-7.168-16-16s7.168-16 16-16zM15.999 1.709c-7.888 0-14.288 6.4-14.288 14.28 0 7.888 6.4 14.288 14.288 14.288s14.288-6.4 14.288-14.288c0-7.88-6.4-14.28-14.288-14.28z"></path>
</symbol>
<symbol id="icon-instagram" viewBox="0 0 32 32">
<path d="M15.999-0.007c8.832 0 16 7.168 16 16s-7.168 16-16 16c-8.832 0-16-7.168-16-16s7.168-16 16-16zM15.999 1.713c-7.888 0-14.288 6.4-14.288 14.28 0 7.888 6.4 14.288 14.288 14.288s14.288-6.4 14.288-14.288c0-7.88-6.4-14.28-14.288-14.28z"></path>
<path d="M24.636 12.113v7.763c0 2.618-2.132 4.75-4.758 4.75h-7.755c-2.626 0-4.758-2.132-4.758-4.75v-7.763c0-2.626 2.132-4.75 4.758-4.75h7.755c2.626 0 4.758 2.124 4.758 4.75zM16 10.434c-3.071 0-5.557 2.494-5.557 5.557 0 3.071 2.486 5.565 5.557 5.565s5.565-2.494 5.565-5.565c0-3.062-2.494-5.557-5.565-5.557zM16 12.146c2.124 0 3.844 1.72 3.844 3.844s-1.721 3.853-3.844 3.853c-2.124 0-3.844-1.729-3.844-3.853s1.721-3.844 3.844-3.844zM21.565 8.829c-0.889 0-1.613 0.716-1.613 1.605s0.724 1.605 1.613 1.605c0.881 0 1.605-0.716 1.605-1.605s-0.724-1.605-1.605-1.605z"></path>
<path d="M24.636 12.113v7.763c0 2.618-2.132 4.75-4.758 4.75h-7.755c-2.626 0-4.758-2.132-4.758-4.75v-7.763c0-2.626 2.132-4.75 4.758-4.75h7.755c2.626 0 4.758 2.124 4.758 4.75zM16 10.434c-3.071 0-5.557 2.494-5.557 5.557 0 3.071 2.486 5.565 5.557 5.565s5.565-2.494 5.565-5.565c0-3.062-2.494-5.557-5.565-5.557zM16 12.146c2.124 0 3.844 1.72 3.844 3.844s-1.721 3.853-3.844 3.853c-2.124 0-3.844-1.729-3.844-3.853s1.721-3.844 3.844-3.844zM16 13.817c-1.202 0-2.182 0.971-2.182 2.173s0.98 2.182 2.182 2.182c1.202 0 2.182-0.98 2.182-2.181s-0.98-2.173-2.182-2.173zM21.565 8.829c-0.889 0-1.613 0.716-1.613 1.605s0.724 1.605 1.613 1.605c0.881 0 1.605-0.716 1.605-1.605s-0.724-1.605-1.605-1.605zM9.036 14.072c0.667-2.445 2.593-4.371 5.038-5.046h-1.951c-1.704 0-3.087 1.383-3.087 3.087v1.959zM14.074 22.963c-2.445-0.675-4.371-2.601-5.038-5.046v1.959c0 1.704 1.383 3.087 3.087 3.087h1.951zM22.964 13.381l-0.132 0.066-0.058 0.025c0.074 0.189 0.14 0.395 0.189 0.601v-0.691zM17.926 9.026c0.206 0.058 0.403 0.123 0.601 0.198l0.016-0.066 0.074-0.132h-0.692zM22.964 17.917c-0.667 2.445-2.593 4.371-5.038 5.046h1.951c1.704 0 3.087-1.383 3.087-3.087v-1.959z"></path>
</symbol>
<symbol id="icon-mail" viewBox="0 0 32 32">
<path d="M23.848 12.469v8.12c0 0.831-0.674 1.505-1.504 1.505h-13.436c-0.83 0-1.504-0.675-1.504-1.505v-8.105l8.133 4.056 8.312-4.071z"></path>
<path d="M7.404 10.659c0.005-0.823 0.677-1.491 1.504-1.491h13.436c0.825 0 1.496 0.667 1.504 1.491l-8.305 4.064-8.139-4.064z"></path>
<path d="M15.624-0.003c8.625 0 15.628 7.009 15.628 15.628 0 8.627-7.003 15.628-15.628 15.628s-15.628-7.001-15.628-15.628c0-8.619 7.003-15.628 15.628-15.628zM15.624 1.669c-7.705 0-13.961 6.251-13.961 13.956s6.256 13.964 13.961 13.964c7.706 0 13.962-6.259 13.962-13.964s-6.256-13.956-13.961-13.956z"></path>
</symbol>
<symbol id="icon-menu" viewBox="0 0 54 32">
<path d="M0-0.001h53.638v4.571h-53.638v-4.571z"></path>
<path d="M0 13.714h53.638v4.571h-53.638v-4.571z"></path>
<path d="M0 27.428h53.638v4.571h-53.638v-4.571z"></path>
</symbol>
<symbol id="icon-phone" viewBox="0 0 32 32">
<path d="M15.622 0.002c8.625 0 15.634 7.001 15.634 15.627s-7.009 15.634-15.634 15.634c-8.625 0-15.627-7.009-15.627-15.634s7.001-15.627 15.627-15.627zM15.622 1.673c-7.701 0-13.956 6.255-13.956 13.956 0 7.708 6.255 13.964 13.956 13.964 7.708 0 13.964-6.255 13.964-13.964 0-7.701-6.255-13.956-13.964-13.956z"></path>
<path d="M11.8 7.412c-2.752-0.136-4.64 1.024-4.368 2.872 1.12 7.632 7.688 13.232 13.864 13.56 0.648 0.032 1.448-0.312 1.864-1.112 0.376-0.584 0.76-2.16 0.672-3.36-0.072-1.072-4.304-3.408-5.184-2.192l-1.304 1.816c-2.168-1.416-3.848-3.12-5.088-5.088 0 0 2.12-1.080 2.168-2.080 0.064-1.416-1.432-4.36-2.624-4.416z"></path>
</symbol>
</defs>
</svg>
