<svg aria-hidden="true" style="position: absolute; width: 0; height: 0; overflow: hidden;" version="1.1" xmlns="http://www.w3.org/2000/svg" xmlns:xlink="http://www.w3.org/1999/xlink">
<defs>
<symbol id="icon-phone" viewBox="0 0 32 32">
<path d="M15.622 0.002c8.625 0 15.634 7.001 15.634 15.627s-7.009 15.634-15.634 15.634c-8.625 0-15.627-7.009-15.627-15.634s7.001-15.627 15.627-15.627zM15.622 1.673c-7.701 0-13.956 6.255-13.956 13.956 0 7.708 6.255 13.964 13.956 13.964 7.708 0 13.964-6.255 13.964-13.964 0-7.701-6.255-13.956-13.964-13.956z"></path>
<path d="M11.8 7.412c-2.752-0.136-4.64 1.024-4.368 2.872 1.12 7.632 7.688 13.232 13.864 13.56 0.648 0.032 1.448-0.312 1.864-1.112 0.376-0.584 0.76-2.16 0.672-3.36-0.072-1.072-4.304-3.408-5.184-2.192l-1.304 1.816c-2.168-1.416-3.848-3.12-5.088-5.088 0 0 2.12-1.080 2.168-2.080 0.064-1.416-1.432-4.36-2.624-4.416z"></path>
</symbol>
<symbol id="icon-facebook" viewBox="0 0 32 32">
<path  d="M13.847 16.861h-2.192v-3.504h2.192v-2.968c0-1.672 1.36-3.032 3.032-3.032h3.608v3.504h-3.136v2.496h3.136v3.504h-3.136v7.768h-3.504v-7.768z"></path>
<path  d="M15.999-0.011c8.832 0 16 7.168 16 16s-7.168 16-16 16c-8.832 0-16-7.168-16-16s7.168-16 16-16zM15.999 1.709c-7.888 0-14.288 6.4-14.288 14.28 0 7.888 6.4 14.288 14.288 14.288s14.288-6.4 14.288-14.288c0-7.88-6.4-14.28-14.288-14.28z"></path>
</symbol>
<symbol id="icon-instagram" viewBox="0 0 32 32">
<path d="M15.999-0.007c8.832 0 16 7.168 16 16s-7.168 16-16 16c-8.832 0-16-7.168-16-16s7.168-16 16-16zM15.999 1.713c-7.888 0-14.288 6.4-14.288 14.28 0 7.888 6.4 14.288 14.288 14.288s14.288-6.4 14.288-14.288c0-7.88-6.4-14.28-14.288-14.28z"></path>
<path d="M24.636 12.113v7.763c0 2.618-2.132 4.75-4.758 4.75h-7.755c-2.626 0-4.758-2.132-4.758-4.75v-7.763c0-2.626 2.132-4.75 4.758-4.75h7.755c2.626 0 4.758 2.124 4.758 4.75zM16 10.434c-3.071 0-5.557 2.494-5.557 5.557 0 3.071 2.486 5.565 5.557 5.565s5.565-2.494 5.565-5.565c0-3.062-2.494-5.557-5.565-5.557zM16 12.146c2.124 0 3.844 1.72 3.844 3.844s-1.721 3.853-3.844 3.853c-2.124 0-3.844-1.729-3.844-3.853s1.721-3.844 3.844-3.844zM21.565 8.829c-0.889 0-1.613 0.716-1.613 1.605s0.724 1.605 1.613 1.605c0.881 0 1.605-0.716 1.605-1.605s-0.724-1.605-1.605-1.605z"></path>
<path d="M24.636 12.113v7.763c0 2.618-2.132 4.75-4.758 4.75h-7.755c-2.626 0-4.758-2.132-4.758-4.75v-7.763c0-2.626 2.132-4.75 4.758-4.75h7.755c2.626 0 4.758 2.124 4.758 4.75zM16 10.434c-3.071 0-5.557 2.494-5.557 5.557 0 3.071 2.486 5.565 5.557 5.565s5.565-2.494 5.565-5.565c0-3.062-2.494-5.557-5.565-5.557zM16 12.146c2.124 0 3.844 1.72 3.844 3.844s-1.721 3.853-3.844 3.853c-2.124 0-3.844-1.729-3.844-3.853s1.721-3.844 3.844-3.844zM16 13.817c-1.202 0-2.182 0.971-2.182 2.173s0.98 2.182 2.182 2.182c1.202 0 2.182-0.98 2.182-2.181s-0.98-2.173-2.182-2.173zM21.565 8.829c-0.889 0-1.613 0.716-1.613 1.605s0.724 1.605 1.613 1.605c0.881 0 1.605-0.716 1.605-1.605s-0.724-1.605-1.605-1.605zM9.036 14.072c0.667-2.445 2.593-4.371 5.038-5.046h-1.951c-1.704 0-3.087 1.383-3.087 3.087v1.959zM14.074 22.963c-2.445-0.675-4.371-2.601-5.038-5.046v1.959c0 1.704 1.383 3.087 3.087 3.087h1.951zM22.964 13.381l-0.132 0.066-0.058 0.025c0.074 0.189 0.14 0.395 0.189 0.601v-0.691zM17.926 9.026c0.206 0.058 0.403 0.123 0.601 0.198l0.016-0.066 0.074-0.132h-0.692zM22.964 17.917c-0.667 2.445-2.593 4.371-5.038 5.046h1.951c1.704 0 3.087-1.383 3.087-3.087v-1.959z"></path>
</symbol>
<symbol id="icon-mail" viewBox="0 0 32 32">
<path d="M23.848 12.469v8.12c0 0.831-0.674 1.505-1.504 1.505h-13.436c-0.83 0-1.504-0.675-1.504-1.505v-8.105l8.133 4.056 8.312-4.071z"></path>
<path d="M7.404 10.659c0.005-0.823 0.677-1.491 1.504-1.491h13.436c0.825 0 1.496 0.667 1.504 1.491l-8.305 4.064-8.139-4.064z"></path>
<path d="M15.624-0.003c8.625 0 15.628 7.009 15.628 15.628 0 8.627-7.003 15.628-15.628 15.628s-15.628-7.001-15.628-15.628c0-8.619 7.003-15.628 15.628-15.628zM15.624 1.669c-7.705 0-13.961 6.251-13.961 13.956s6.256 13.964 13.961 13.964c7.706 0 13.962-6.259 13.962-13.964s-6.256-13.956-13.961-13.956z"></path>
</symbol>
</defs>
</svg>
