<svg id="instagram-icon" viewBox="0 0 40 40" xmlns="http://www.w3.org/2000/svg" xml:space="preserve" style="fill:evenodd;clip-rule:evenodd;stroke-linejoin:round;stroke-miterlimit:2"><path d="M1264 3500.01c11.04 0 20 8.96 20 20s-8.96 20-20 20-20-8.96-20-20 8.96-20 20-20Zm0 2.15c-9.86 0-17.86 8-17.86 17.85 0 9.86 8 17.86 17.86 17.86s17.86-8 17.86-17.86c0-9.85-8-17.85-17.86-17.85Z" style="fill:#fff4e8" transform="translate(-1244.0013 -3500.0097)"/><path d="M1274.49 3515.78v9.43c0 3.18-2.59 5.77-5.78 5.77h-9.42c-3.19 0-5.78-2.59-5.78-5.77v-9.43c0-3.19 2.59-5.77 5.78-5.77h9.42c3.19 0 5.78 2.58 5.78 5.77Zm-10.49-2.04c-3.73 0-6.75 3.03-6.75 6.75 0 3.73 3.02 6.76 6.75 6.76s6.76-3.03 6.76-6.76c0-3.72-3.03-6.75-6.76-6.75Zm0 2.08c2.58 0 4.67 2.09 4.67 4.67s-2.09 4.68-4.67 4.68-4.67-2.1-4.67-4.68c0-2.58 2.09-4.67 4.67-4.67Zm6.76-4.03c-1.08 0-1.96.87-1.96 1.95s.88 1.95 1.96 1.95c1.07 0 1.95-.87 1.95-1.95s-.88-1.95-1.95-1.95Z" style="fill:#fff4e8" transform="matrix(1.02902 0 0 1.02901 -1280.6813 -3602.6406)"/><path d="M1274.49 3515.78v9.43c0 3.18-2.59 5.77-5.78 5.77h-9.42c-3.19 0-5.78-2.59-5.78-5.77v-9.43c0-3.19 2.59-5.77 5.78-5.77h9.42c3.19 0 5.78 2.58 5.78 5.77Zm-10.49-2.04c-3.73 0-6.75 3.03-6.75 6.75 0 3.73 3.02 6.76 6.75 6.76s6.76-3.03 6.76-6.76c0-3.72-3.03-6.75-6.76-6.75Zm0 2.08c2.58 0 4.67 2.09 4.67 4.67s-2.09 4.68-4.67 4.68-4.67-2.1-4.67-4.68c0-2.58 2.09-4.67 4.67-4.67Zm0 2.03c-1.46 0-2.65 1.18-2.65 2.64 0 1.46 1.19 2.65 2.65 2.65s2.65-1.19 2.65-2.65-1.19-2.64-2.65-2.64Zm6.76-6.06c-1.08 0-1.96.87-1.96 1.95s.88 1.95 1.96 1.95c1.07 0 1.95-.87 1.95-1.95s-.88-1.95-1.95-1.95Zm-15.22 6.37c.81-2.97 3.15-5.31 6.12-6.13h-2.37c-2.07 0-3.75 1.68-3.75 3.75v2.38Zm6.12 10.8c-2.97-.82-5.31-3.16-6.12-6.13v2.38c0 2.07 1.68 3.75 3.75 3.75h2.37Zm10.8-11.64-.16.08-.07.03c.09.23.17.48.23.73v-.84Zm-6.12-5.29c.25.07.49.15.73.24l.02-.08.09-.16h-.84Zm6.12 10.8c-.81 2.97-3.15 5.31-6.12 6.13h2.37c2.07 0 3.75-1.68 3.75-3.75v-2.38Z" style="fill:#fff4e8" transform="matrix(1.02902 0 0 1.02901 -1280.6813 -3602.6406)"/></svg>