<svg xml:space="preserve" fill-rule="evenodd" stroke-linejoin="round" stroke-miterlimit="2" clip-rule="evenodd" viewBox="0 0 40 40">
  <path fill="#fff4e8" d="M17.3087 21.0763h-2.74v-4.38h2.74v-3.71c0-2.09 1.7-3.79 3.79-3.79h4.51v4.38h-3.92v3.12h3.92v4.38h-3.92v9.71h-4.38v-9.71Z"/>
  <path fill="#fff4e8" d="M19.9987-.0137c11.04 0 20 8.96 20 20s-8.96 20-20 20-20-8.96-20-20 8.96-20 20-20Zm0 2.15c-9.86 0-17.86 8-17.86 17.85 0 9.86 8 17.86 17.86 17.86s17.86-8 17.86-17.86c0-9.85-8-17.85-17.86-17.85Z"/>
</svg>
