<svg xmlns="http://www.w3.org/2000/svg" aria-hidden="true" style="position:absolute;width:0;height:0;overflow:hidden"><defs><symbol id="icon-phone" viewBox="0 0 32 32"><path d="M15.622.002c8.625 0 15.634 7.001 15.634 15.627s-7.009 15.634-15.634 15.634S-.005 24.254-.005 15.629 6.996.002 15.622.002zm0 1.671c-7.701 0-13.956 6.255-13.956 13.956 0 7.708 6.255 13.964 13.956 13.964 7.708 0 13.964-6.255 13.964-13.964 0-7.701-6.255-13.956-13.964-13.956z"/><path d="M11.8 7.412c-2.752-.136-4.64 1.024-4.368 2.872 1.12 7.632 7.688 13.232 13.864 13.56.648.032 1.448-.312 1.864-1.112.376-.584.76-2.16.672-3.36-.072-1.072-4.304-3.408-5.184-2.192l-1.304 1.816c-2.168-1.416-3.848-3.12-5.088-5.088 0 0 2.12-1.08 2.168-2.08.064-1.416-1.432-4.36-2.624-4.416z"/></symbol><symbol id="icon-facebook" viewBox="0 0 32 32"><path d="M13.847 16.861h-2.192v-3.504h2.192v-2.968a3.035 3.035 0 0 1 3.032-3.032h3.608v3.504h-3.136v2.496h3.136v3.504h-3.136v7.768h-3.504v-7.768z"/><path d="M15.999-.011c8.832 0 16 7.168 16 16s-7.168 16-16 16-16-7.168-16-16 7.168-16 16-16zm0 1.72c-7.888 0-14.288 6.4-14.288 14.28 0 7.888 6.4 14.288 14.288 14.288s14.288-6.4 14.288-14.288c0-7.88-6.4-14.28-14.288-14.28z"/></symbol><symbol id="icon-instagram" viewBox="0 0 32 32"><path d="M15.999-.007c8.832 0 16 7.168 16 16s-7.168 16-16 16-16-7.168-16-16 7.168-16 16-16zm0 1.72c-7.888 0-14.288 6.4-14.288 14.28 0 7.888 6.4 14.288 14.288 14.288s14.288-6.4 14.288-14.288c0-7.88-6.4-14.28-14.288-14.28z"/><path d="M24.636 12.113v7.763a4.759 4.759 0 0 1-4.758 4.75h-7.755a4.759 4.759 0 0 1-4.758-4.75v-7.763a4.753 4.753 0 0 1 4.758-4.75h7.755a4.753 4.753 0 0 1 4.758 4.75zM16 10.434a5.561 5.561 0 0 0 0 11.122 5.568 5.568 0 0 0 5.565-5.565c0-3.062-2.494-5.557-5.565-5.557zm0 1.712c2.124 0 3.844 1.72 3.844 3.844S18.123 19.843 16 19.843c-2.124 0-3.844-1.729-3.844-3.853s1.721-3.844 3.844-3.844zm5.565-3.317c-.889 0-1.613.716-1.613 1.605a1.609 1.609 0 0 0 3.218 0c0-.889-.724-1.605-1.605-1.605z"/><path d="M24.636 12.113v7.763a4.759 4.759 0 0 1-4.758 4.75h-7.755a4.759 4.759 0 0 1-4.758-4.75v-7.763a4.753 4.753 0 0 1 4.758-4.75h7.755a4.753 4.753 0 0 1 4.758 4.75zM16 10.434a5.561 5.561 0 0 0 0 11.122 5.568 5.568 0 0 0 5.565-5.565c0-3.062-2.494-5.557-5.565-5.557zm0 1.712c2.124 0 3.844 1.72 3.844 3.844S18.123 19.843 16 19.843c-2.124 0-3.844-1.729-3.844-3.853s1.721-3.844 3.844-3.844zm0 1.671c-1.202 0-2.182.971-2.182 2.173s.98 2.182 2.182 2.182 2.182-.98 2.182-2.181-.98-2.173-2.182-2.173zm5.565-4.988c-.889 0-1.613.716-1.613 1.605a1.609 1.609 0 0 0 3.218 0c0-.889-.724-1.605-1.605-1.605zM9.036 14.072a7.226 7.226 0 0 1 5.038-5.046h-1.951a3.088 3.088 0 0 0-3.087 3.087v1.959zm5.038 8.891a7.226 7.226 0 0 1-5.038-5.046v1.959a3.088 3.088 0 0 0 3.087 3.087h1.951zm8.89-9.582-.132.066-.058.025c.074.189.14.395.189.601v-.691zm-5.038-4.355c.206.058.403.123.601.198l.016-.066.074-.132h-.692zm5.038 8.891a7.226 7.226 0 0 1-5.038 5.046h1.951a3.088 3.088 0 0 0 3.087-3.087v-1.959z"/></symbol><symbol id="icon-mail" viewBox="0 0 32 32"><path d="M23.848 12.469v8.12c0 .831-.674 1.505-1.504 1.505H8.908c-.83 0-1.504-.675-1.504-1.505v-8.105l8.133 4.056 8.312-4.071z"/><path d="M7.404 10.659a1.503 1.503 0 0 1 1.504-1.491h13.436c.825 0 1.496.667 1.504 1.491l-8.305 4.064-8.139-4.064z"/><path d="M15.624-.003c8.625 0 15.628 7.009 15.628 15.628 0 8.627-7.003 15.628-15.628 15.628S-.004 24.252-.004 15.625c0-8.619 7.003-15.628 15.628-15.628zm0 1.672c-7.705 0-13.961 6.251-13.961 13.956s6.256 13.964 13.961 13.964c7.706 0 13.962-6.259 13.962-13.964S23.33 1.669 15.625 1.669z"/></symbol></defs></svg>