<svg xmlns="http://www.w3.org/2000/svg" xml:space="preserve" style="fill-rule:evenodd;clip-rule:evenodd;stroke-linejoin:round;stroke-miterlimit:2" viewBox="0 0 171 227"><path d="M0 0h180v240H0z" style="fill:none" transform="scale(.94512 .94171)"/><path d="m2310.39 410.082 3.62-4.189 23.93 8.444 2.1-2.428 7.15 6.176-3.47 4.012-3.25-2.813-12.94 14.981 3.25 2.813-3.46 4.012-7.15-6.176 2.08-2.413-11.86-22.419Zm7.62 2.855 7.99 15.227 8.22-9.519-16.21-5.708Zm44.64-49.342 16.76 23.391-4.46 3.19-10.49-14.645 1.76 20.9-3.88 2.78-16.76-23.392 4.46-3.189 10.83 15.122-1.98-21.468 3.76-2.689Zm29.78-16.525 5.11-2.11 3.78 9.15 3.44-12.127 6.09-2.513-4.4 15.696 16.28 10.532-6.01 2.476-13.08-8.422 4.87 11.808-5.11 2.111-10.97-26.601Zm48.81-16.429 15.44-2.886.99 5.268-10.09 1.888.95 5.114 10.1-1.887.96 5.173-10.09 1.887 1.39 7.441 10.09-1.887.99 5.288-15.44 2.886-5.29-28.285Zm83.65-3.627 20.39 3.631-5.04 28.329-5.45-.97 4.14-23.284-9.47-1.686-4.15 23.283-5.47-.973 5.05-28.33Zm66.12 18.309c3.71 1.666 6.3 4.441 7.75 8.326 1.47 3.891 1.34 7.769-.39 11.636-1.72 3.831-4.5 6.481-8.33 7.948-3.82 1.474-7.61 1.367-11.37-.32-3.94-1.768-6.6-4.598-7.98-8.492-1.38-3.894-1.24-7.715.45-11.463 1.12-2.51 2.77-4.546 4.93-6.107 2.15-1.562 4.57-2.48 7.23-2.755 2.69-.282 5.26.127 7.71 1.227Zm-2.25 4.866c-2.43-1.089-4.85-1.16-7.26-.213-2.41.948-4.2 2.724-5.37 5.33-1.3 2.903-1.29 5.667.03 8.29 1.03 2.047 2.59 3.54 4.68 4.48 2.37 1.063 4.77 1.111 7.2.145 2.44-.966 4.22-2.704 5.35-5.214 1.12-2.499 1.23-4.987.32-7.465-.9-2.49-2.55-4.274-4.95-5.353Zm40.42 53.651 6.84-21.537-19.45 11.598-4.56-3.595 26.52-15.739 4.36 3.438-9.11 29.455-4.6-3.62Zm43.67 2.78 9.95 12.147-4.14 3.398-6.51-7.942-4.02 3.299 6.51 7.942-4.07 3.336-6.51-7.942-5.86 4.8 6.51 7.942-4.16 3.41-9.96-12.148 22.26-18.242Z" style="fill:#fff4e8;fill-rule:nonzero" transform="translate(-932.369 -133.451) scale(.40811)"/><path d="M4212.63 656.066c4.18-8.251 7.7-16.893 10.48-25.857a166.494 166.494 0 0 0 7.07-37.149c.04-.547.08-1.095.11-1.644.8-5.668 5.68-10.034 11.56-10.034 6.45 0 11.68 5.233 11.68 11.678-.03.549-.07 1.097-.11 1.644a190.888 190.888 0 0 1-3.12 22.986 189.343 189.343 0 0 1-10.82 35.712c21.46-4.426 41.16-13.672 57.93-26.555 24.3-18.669 42.43-44.973 50.79-75.311-32.82-13.03-58.17-40.89-67.74-75.291-.1-.331-.19-.662-.27-.993-.2-.866-.31-1.767-.31-2.692 0-6.668 5.42-12.082 12.09-12.082 5.23 0 9.69 3.332 11.37 7.987.16.645.34 1.287.51 1.926 7.17 25.524 25.18 46.536 48.73 57.753.48-4.795.73-9.66.73-14.583 0-37.765-14.69-72.125-38.67-97.671-.43-.461-.87-.919-1.3-1.375a11.633 11.633 0 0 1-2.6-7.331c0-6.445 5.24-11.678 11.68-11.678 2.8 0 5.36.982 7.37 2.62.69.713 1.37 1.431 2.05 2.155 27.72 29.673 44.7 69.51 44.7 113.28 0 7.419-.49 14.725-1.43 21.888a165.63 165.63 0 0 1-6.6 29.232c1.25-2.165 2.45-4.359 3.61-6.579a180.238 180.238 0 0 0 9.59-21.684c7.14-19.514 11.04-40.586 11.04-62.561 0-9.864-.78-19.547-2.3-28.988-.08-.537-.17-1.075-.26-1.611a9.983 9.983 0 0 1-.05-1.098c0-6.446 5.23-11.678 11.68-11.678 5.24 0 9.68 3.461 11.15 8.22.18 1.043.35 2.09.52 3.138a207.33 207.33 0 0 1 2.49 32.017c0 21.576-3.34 42.38-9.52 61.925a203.034 203.034 0 0 1-9.07 23.512c-17.01 37.124-44.77 68.315-79.28 89.586a204.309 204.309 0 0 1-56.8 24.086c-17.14 4.487-29.98 19.639-30.99 37.924 18.16-16.927 42.01-27.823 68.35-29.482 2.34-.147 4.69-.222 7.05-.222 7.04 0 13.91.658 20.58 1.914-.59 13.586-5.44 26.073-13.25 36.16-11.67 15.069-29.94 24.778-50.45 24.778-7.99 0-15.64-1.473-22.69-4.161a63.94 63.94 0 0 1-22.52-14.654 64.016 64.016 0 0 1-12.26-17.309c-4.04-8.365-6.3-17.742-6.3-27.643 0-.37 0-.739.01-1.106v-.192c.01-.109.01-.219.01-.328 5.1-7.047 9.67-14.505 13.64-22.315.05-.088.09-.176.14-.264Z" style="fill:#fff4e8" transform="translate(-1369.07 -88.251) scale(.34854)"/><path d="M4212.63 656.066c4.18-8.251 7.7-16.893 10.48-25.857a166.494 166.494 0 0 0 7.07-37.149c.04-.547.08-1.095.11-1.644.8-5.668 5.68-10.034 11.56-10.034 6.45 0 11.68 5.233 11.68 11.678-.03.549-.07 1.097-.11 1.644a190.888 190.888 0 0 1-3.12 22.986 189.343 189.343 0 0 1-10.82 35.712c21.46-4.426 41.16-13.672 57.93-26.555 24.3-18.669 42.43-44.973 50.79-75.311-32.82-13.03-58.17-40.89-67.74-75.291-.1-.331-.19-.662-.27-.993-.2-.866-.31-1.767-.31-2.692 0-6.668 5.42-12.082 12.09-12.082 5.23 0 9.69 3.332 11.37 7.987.16.645.34 1.287.51 1.926 7.17 25.524 25.18 46.536 48.73 57.753.48-4.795.73-9.66.73-14.583 0-37.765-14.69-72.125-38.67-97.671-.43-.461-.87-.919-1.3-1.375a11.633 11.633 0 0 1-2.6-7.331c0-6.445 5.24-11.678 11.68-11.678 2.8 0 5.36.982 7.37 2.62.69.713 1.37 1.431 2.05 2.155 27.72 29.673 44.7 69.51 44.7 113.28 0 7.419-.49 14.725-1.43 21.888a165.63 165.63 0 0 1-6.6 29.232c1.25-2.165 2.45-4.359 3.61-6.579a180.238 180.238 0 0 0 9.59-21.684c7.14-19.514 11.04-40.586 11.04-62.561 0-9.864-.78-19.547-2.3-28.988-.08-.537-.17-1.075-.26-1.611a9.983 9.983 0 0 1-.05-1.098c0-6.446 5.23-11.678 11.68-11.678 5.24 0 9.68 3.461 11.15 8.22.18 1.043.35 2.09.52 3.138a207.33 207.33 0 0 1 2.49 32.017c0 21.576-3.34 42.38-9.52 61.925a203.034 203.034 0 0 1-9.07 23.512c-17.01 37.124-44.77 68.315-79.28 89.586a204.309 204.309 0 0 1-56.8 24.086c-17.14 4.487-29.98 19.639-30.99 37.924 18.16-16.927 42.01-27.823 68.35-29.482 2.34-.147 4.69-.222 7.05-.222 7.04 0 13.91.658 20.58 1.914-.59 13.586-5.44 26.073-13.25 36.16-11.67 15.069-29.94 24.778-50.45 24.778-7.99 0-15.64-1.473-22.69-4.161a63.94 63.94 0 0 1-22.52-14.654 64.016 64.016 0 0 1-12.26-17.309c-4.04-8.365-6.3-17.742-6.3-27.643 0-.37 0-.739.01-1.106v-.192c.01-.109.01-.219.01-.328 5.1-7.047 9.67-14.505 13.64-22.315.05-.088.09-.176.14-.264Z" style="fill:#fff4e8" transform="matrix(-.34854 0 0 .34854 1539.21 -88.251)"/><path d="M4164.41 876.618h3.18c13.07 0 23.68-10.609 23.68-23.676 0-1.584-.16-3.132-.46-4.629-.17-.895-.4-1.771-.68-2.626a79.078 79.078 0 0 1-2.17-20.468c.11-4.678.63-9.251 1.52-13.687 3.79-19.014 14.39-35.52 29.08-46.949.21-.16.41-.318.62-.476l2.25-1.653c1.63-1.089 3.63-1.495 5.71-1.495 6.42 0 11.64 5.215 11.64 11.639 0 3.632-1.67 6.878-4.28 9.013-.36.252-.71.509-1.06.769-13.57 10.137-22.37 26.328-22.37 44.557 0 .921.02 1.837.07 2.746.17 3.605.69 7.119 1.53 10.512.14.573.29 1.143.44 1.709.86 3.54 1.31 7.236 1.31 11.038a46.62 46.62 0 0 1-7.56 25.516c-8.36 12.829-22.83 21.318-39.27 21.318-.53 0-1.06-.009-1.59-.026-.53.017-1.06.026-1.59.026-16.44 0-30.91-8.489-39.27-21.318a46.62 46.62 0 0 1-7.56-25.516c0-3.802.45-7.498 1.31-11.038.15-.566.3-1.136.44-1.709a54.361 54.361 0 0 0 1.53-10.512c.05-.909.07-1.825.07-2.746 0-18.229-8.8-34.42-22.37-44.557-.35-.26-.7-.517-1.06-.769a11.621 11.621 0 0 1-4.28-9.013c0-6.424 5.22-11.639 11.64-11.639 2.08 0 4.08.406 5.71 1.495l2.25 1.653c.21.158.41.316.62.476 14.69 11.429 25.29 27.935 29.08 46.949a78.972 78.972 0 0 1 1.52 13.687 79.078 79.078 0 0 1-2.17 20.468c-.28.855-.51 1.731-.68 2.626a23.54 23.54 0 0 0-.46 4.629c0 13.067 10.61 23.676 23.68 23.676Z" style="fill:#fff4e8" transform="translate(-1366.944 -87.6) scale(.34854)"/><path d="m2356.46 381.062 1.42 1.875.61-.464c3.49-2.647 6.32-2.533 8.5.341.62.816 1.01 1.615 1.17 2.397.16.771.12 1.546-.13 2.325-.25.768-.61 1.426-1.09 1.974-.47.536-1.29 1.246-2.45 2.13l2.98 3.937-2.78 2.113-2.99-3.937c-1.21.924-2.31 1.561-3.27 1.912-.96.346-1.95.37-2.97.072-1.02-.305-1.91-.97-2.69-1.996-.74-.967-1.16-1.935-1.26-2.904-.1-.969.09-1.889.58-2.759.5-.875 1.5-1.885 3.01-3.028l-1.43-1.875 2.79-2.113Zm.57 6.534-.64.486c-.97.735-1.49 1.382-1.58 1.942-.08.554.1 1.13.55 1.729.54.704 1.1 1.043 1.69 1.018.6-.029 1.28-.332 2.04-.906l.75-.569-2.81-3.7Zm2.78-2.113 2.81 3.7.91-.689c.93-.709 1.42-1.353 1.46-1.931.03-.579-.16-1.147-.58-1.707-.44-.572-.94-.894-1.5-.965-.56-.082-1.32.244-2.29.978l-.81.614Zm13.16-15.739 8.56-5.055 1.73 2.924-5.6 3.304 1.67 2.839 5.6-3.305 1.7 2.87-5.6 3.305 2.43 4.129 5.6-3.304 1.74 2.934-8.57 5.055-9.26-15.696Zm20.06-11.093 3.35-1.535c1.81-.83 3.19-1.259 4.14-1.287a4.29 4.29 0 0 1 2.63.753c.81.529 1.45 1.316 1.93 2.359.53 1.156.67 2.256.41 3.301-.25 1.041-.82 1.95-1.72 2.726-.53.451-1.59 1.046-3.2 1.784l3.22 7.014-3.15 1.447-7.61-16.562Zm6.13 5.027 1-.46c.79-.362 1.31-.67 1.57-.924.25-.254.41-.548.46-.882a1.78 1.78 0 0 0-.16-1.07c-.29-.638-.75-.99-1.38-1.055-.47-.052-1.18.146-2.16.594l-.89.408 1.56 3.389Zm17.95-15.18 3.24-1.022 7.84 10.854.25-13.407 3.19-1.007 8.42 16.454-3.19 1.007-5.33-10.387-.24 12.143-2.92.921-7.11-9.824 1.56 11.576-3.22 1.018-2.49-18.326Zm35.84-9.309 3.47-.588 9.96 16.796-3.55.602-2.03-3.463-7.33 1.243-.84 3.949-3.56.603 3.88-19.142Zm2.57 4.466-1.35 6.574 4.78-.81-3.43-5.764Zm69.2-5.852 3.63.593c1.97.321 3.35.736 4.16 1.244.81.501 1.4 1.2 1.76 2.096.38.89.47 1.901.28 3.034-.2 1.255-.7 2.245-1.5 2.968-.79.725-1.77 1.159-2.95 1.301-.69.079-1.9-.024-3.65-.309l-1.24 7.617-3.43-.559 2.94-17.985Zm2.28 7.589 1.09.178c.85.14 1.46.176 1.81.109.35-.068.65-.225.88-.471.24-.254.4-.58.46-.98.12-.692-.07-1.242-.56-1.647-.35-.301-1.06-.538-2.12-.711l-.96-.158-.6 3.68Zm26.82-1.521 3.38.962 1.76 19.447-3.46-.986-.35-4-7.15-2.033-2.45 3.204-3.47-.986 11.74-15.608Zm.39 5.135-4.04 5.354 4.66 1.325-.62-6.679Zm21.79 2.142 3.24 1.374-2.68 6.33 5.61 2.38 2.68-6.329 3.23 1.369-7.12 16.777-3.22-1.369 3.12-7.357-5.62-2.38-3.12 7.356-3.23-1.374 7.11-16.777Zm26.62 24.286-1.02-.573c-1.46-.825-2.49-1.511-3.11-2.056-.6-.541-1.08-1.235-1.44-2.082-.35-.854-.46-1.702-.32-2.546.14-.851.53-1.855 1.19-3.013l1.78-3.148 3.06 1.732-1.75 3.094c-.61 1.079-.84 1.94-.69 2.584.15.643.86 1.323 2.12 2.038l1.83 1.037 3.39-5.985 3.04 1.72-8.97 15.863-3.04-1.72 3.93-6.945Zm27.37 5.344c2.06 1.544 3.27 3.618 3.64 6.221.36 2.607-.25 4.986-1.86 7.135-1.6 2.129-3.68 3.381-6.25 3.756-2.57.381-4.89-.211-6.98-1.775-2.19-1.638-3.44-3.757-3.76-6.355-.31-2.598.31-4.938 1.87-7.021 1.04-1.395 2.34-2.425 3.89-3.09a9.326 9.326 0 0 1 4.86-.698c1.7.198 3.23.807 4.59 1.827Zm-2.07 2.695c-1.34-1.01-2.83-1.389-4.45-1.139-1.62.251-2.98 1.101-4.06 2.549-1.21 1.613-1.58 3.322-1.13 5.127.35 1.407 1.11 2.546 2.27 3.417 1.32.985 2.79 1.348 4.43 1.089 1.64-.259 2.98-1.086 4.03-2.481 1.03-1.389 1.45-2.911 1.23-4.568-.21-1.663-.98-2.994-2.32-3.994Z" style="fill:#fff4e8;fill-rule:nonzero" transform="translate(-718.185 -81.43) scale(.3222)"/></svg>