<svg xmlns="http://www.w3.org/2000/svg" xml:space="preserve" style="fill-rule:evenodd;clip-rule:evenodd;stroke-linejoin:round;stroke-miterlimit:2" viewBox="0 0 40 40"><path d="M474.505 3496.85v10.95c0 1.12-.873 2.03-1.948 2.03h-17.402c-1.075 0-1.948-.91-1.948-2.03v-10.93l10.533 5.47 10.765-5.49Z" style="fill:#fff4e8" transform="matrix(.96513 0 0 .92698 -428.148 -3225.918)"/><path d="M453.207 3494.41c.007-1.11.877-2.01 1.948-2.01h17.402c1.069 0 1.938.9 1.948 2.01l-10.756 5.48-10.542-5.48Z" style="fill:#fff4e8" transform="matrix(.96513 0 0 .92698 -428.148 -3225.918)"/><path d="M464 3480.67c11.038 0 20 8.97 20 20 0 11.04-8.962 20-20 20s-20-8.96-20-20c0-11.03 8.962-20 20-20Zm0 2.14c-9.861 0-17.867 8-17.867 17.86s8.006 17.87 17.867 17.87 17.867-8.01 17.867-17.87c0-9.86-8.006-17.86-17.867-17.86Z" style="fill:#fff4e8" transform="translate(-433.69 -3399.804) scale(.97677)"/></svg>